#N canvas 360 260 495 351 10;
#X obj 40 62 list trim;
#X obj 40 40 r fromGUI;
#X obj 49 275 send toNetwork;
#X obj 40 106 tgl 15 0 \$0-tgl-netmsg empty S:0-tgl-netmsg 17 7 0 10
-262144 -1 -1 0 1;
#X obj 273 84 s toGUI;
#X obj 273 40 loadbang;
#X msg 273 62 list /tgl.netmsg set 0;
#X obj 126 238 tgl 15 0 empty \$0-tgl-netmsg r:0-tgl-netmsg 17 7 0
10 -262144 -1 -1 0 1;
#X obj 49 253 spigot;
#X obj 298 174 receive fromGUI;
#X obj 298 196 list trim;
#X obj 298 218 route /clap;
#X obj 298 240 route 1;
#X msg 298 262 list /clap;
#X obj 298 284 send toNetwork;
#X obj 40 84 route /tgl.netmsg;
#X obj 49 159 r fromGUI;
#X obj 110 191 print;
#X connect 0 0 15 0;
#X connect 1 0 0 0;
#X connect 5 0 6 0;
#X connect 6 0 4 0;
#X connect 7 0 8 1;
#X connect 8 0 2 0;
#X connect 9 0 10 0;
#X connect 10 0 11 0;
#X connect 11 0 12 0;
#X connect 12 0 13 0;
#X connect 13 0 14 0;
#X connect 15 0 3 0;
#X connect 16 0 8 0;
#X connect 16 0 17 0;
