#N canvas 335 111 924 430 10;
#X obj 39 60 list trim;
#X obj 39 38 r fromGUI;
#X floatatom 39 104 5 0 0 1 s:monitor-vol - monitor-vol, f 5;
#X obj 59 285 send toNetwork;
#X symbolatom 39 201 10 0 0 0 - - -, f 10;
#X obj 39 320 print sing!;
#X msg 288 215 list /lbl.pitch.monitor \$1;
#X obj 288 237 s toGUI;
#X text 303 174 text (visual) feedback!;
#X msg 630 113 /C4;
#X msg 662 113 /D4;
#X msg 694 113 /E4;
#X msg 726 113 /F4;
#X msg 758 113 /G4;
#X msg 790 113 /A4;
#X msg 822 113 /B4;
#X msg 854 113 /C5;
#X obj 630 44 key;
#X floatatom 630 66 5 0 0 0 - - -, f 5;
#X obj 630 85 route 97 115 100 102 103 104 106 107;
#X text 627 20 simulation by keyboard;
#X obj 584 130 t a;
#X obj 584 328 s fromNetwork;
#X text 635 306 for TEST;
#X obj 39 82 route /knb.monitor.vol /tgl.netmsg;
#X obj 156 130 tgl 15 0 \$0-tgl-netmsg empty S:0-tgl-netmsg 17 7 0
10 -262144 -1 -1 0 1;
#X obj 328 77 s toGUI;
#X obj 328 33 loadbang;
#X msg 328 55 list /tgl.netmsg set 0;
#N canvas 63 406 1056 291 buttonkeyboard 0;
#X obj 317 235 outlet;
#X text 375 234 1-note detected in symbol;
#X msg 20 105 symbol /C4;
#X msg 119 105 symbol /D4;
#X msg 218 105 symbol /E4;
#X msg 317 105 symbol /F4;
#X obj 20 17 r fromGUI;
#X obj 20 39 list trim;
#X obj 20 61 route /btn.tone.60 /btn.tone.62 /btn.tone.64 /btn.tone.65
;
#X obj 416 83 route /btn.tone.67 /btn.tone.69 /btn.tone.71 /btn.tone.72
;
#X msg 416 127 symbol /G4;
#X msg 515 127 symbol /A4;
#X msg 614 127 symbol /B4;
#X msg 713 127 symbol /C5;
#X obj 812 105 route /btn.tone.74 /btn.tone.76;
#X msg 812 149 symbol /D5;
#X msg 919 149 symbol /E5;
#X obj 20 83 route 1;
#X obj 119 83 route 1;
#X obj 218 83 route 1;
#X obj 317 83 route 1;
#X obj 416 105 route 1;
#X obj 515 105 route 1;
#X obj 614 105 route 1;
#X obj 713 105 route 1;
#X obj 812 127 route 1;
#X obj 919 127 route 1;
#X obj 149 32 send toNetwork;
#X connect 2 0 0 0;
#X connect 3 0 0 0;
#X connect 4 0 0 0;
#X connect 5 0 0 0;
#X connect 6 0 7 0;
#X connect 7 0 27 0;
#X connect 8 0 17 0;
#X connect 8 1 18 0;
#X connect 8 2 19 0;
#X connect 8 3 20 0;
#X connect 8 4 9 0;
#X connect 9 0 21 0;
#X connect 9 1 22 0;
#X connect 9 2 23 0;
#X connect 9 3 24 0;
#X connect 9 4 14 0;
#X connect 10 0 0 0;
#X connect 11 0 0 0;
#X connect 12 0 0 0;
#X connect 13 0 0 0;
#X connect 14 0 25 0;
#X connect 14 1 26 0;
#X connect 15 0 0 0;
#X connect 16 0 0 0;
#X connect 17 0 2 0;
#X connect 18 0 3 0;
#X connect 19 0 4 0;
#X connect 20 0 5 0;
#X connect 21 0 10 0;
#X connect 22 0 11 0;
#X connect 23 0 12 0;
#X connect 24 0 13 0;
#X connect 25 0 15 0;
#X connect 26 0 16 0;
#X restore 39 179 pd buttonkeyboard;
#X obj 136 248 tgl 15 0 empty \$0-tgl-netmsg r:0-tgl-netmsg 17 7 0
10 -262144 -1 -1 0 1;
#X obj 59 263 spigot;
#X msg 39 220 list \$1;
#X obj 370 267 receive fromGUI;
#X obj 370 289 list trim;
#X obj 370 311 route /clap;
#X obj 370 333 route 1;
#X msg 370 355 list /clap;
#X obj 370 377 send toNetwork;
#X connect 0 0 24 0;
#X connect 1 0 0 0;
#X connect 4 0 32 0;
#X connect 4 0 6 0;
#X connect 6 0 7 0;
#X connect 9 0 21 0;
#X connect 10 0 21 0;
#X connect 11 0 21 0;
#X connect 12 0 21 0;
#X connect 13 0 21 0;
#X connect 14 0 21 0;
#X connect 15 0 21 0;
#X connect 16 0 21 0;
#X connect 17 0 18 0;
#X connect 18 0 19 0;
#X connect 19 0 9 0;
#X connect 19 1 10 0;
#X connect 19 2 11 0;
#X connect 19 3 12 0;
#X connect 19 4 13 0;
#X connect 19 5 14 0;
#X connect 19 6 15 0;
#X connect 19 7 16 0;
#X connect 24 0 2 0;
#X connect 24 1 25 0;
#X connect 27 0 28 0;
#X connect 28 0 26 0;
#X connect 29 0 4 0;
#X connect 30 0 31 1;
#X connect 31 0 3 0;
#X connect 32 0 5 0;
#X connect 32 0 31 0;
#X connect 33 0 34 0;
#X connect 34 0 35 0;
#X connect 35 0 36 0;
#X connect 36 0 37 0;
#X connect 37 0 38 0;
