#N canvas 335 121 495 589 10;
#X obj 40 62 list trim;
#X obj 40 40 r fromGUI;
#X obj 278 492 send toNetwork;
#X symbolatom 258 408 10 0 0 0 - - -, f 10;
#X obj 258 527 print sing!;
#X obj 40 106 tgl 15 0 \$0-tgl-netmsg empty S:0-tgl-netmsg 17 7 0 10
-262144 -1 -1 0 1;
#X obj 273 84 s toGUI;
#X obj 273 40 loadbang;
#X msg 273 62 list /tgl.netmsg set 0;
#X obj 355 455 tgl 15 0 empty \$0-tgl-netmsg r:0-tgl-netmsg 17 7 0
10 -262144 -1 -1 0 1;
#X obj 278 470 spigot;
#X msg 258 427 list \$1;
#X obj 38 406 receive fromGUI;
#X obj 38 428 list trim;
#X obj 38 450 route /clap;
#X obj 38 472 route 1;
#X msg 38 494 list /clap;
#X obj 38 516 send toNetwork;
#X obj 40 84 route /tgl.netmsg;
#X obj 40 162 r fromGUI;
#X obj 40 184 list trim;
#X obj 40 206 route /C4 /D4 /E4 /F4 /G4 /A4 /B4 /C5 /D5 /E5;
#X msg 40 250 symbol /C4 \$1;
#X msg 71 270 symbol /D4 \$1;
#X msg 102 290 symbol /E4 \$1;
#X msg 133 310 symbol /F4 \$1;
#X msg 164 330 symbol /G4 \$1;
#X msg 196 350 symbol /A4 \$1;
#X msg 227 370 symbol /B4 \$1;
#X msg 258 250 symbol /C5 \$1;
#X msg 289 270 symbol /D5 \$1;
#X msg 320 290 symbol /E5 \$1;
#X connect 0 0 18 0;
#X connect 1 0 0 0;
#X connect 3 0 11 0;
#X connect 7 0 8 0;
#X connect 8 0 6 0;
#X connect 9 0 10 1;
#X connect 10 0 2 0;
#X connect 11 0 4 0;
#X connect 11 0 10 0;
#X connect 12 0 13 0;
#X connect 13 0 14 0;
#X connect 14 0 15 0;
#X connect 15 0 16 0;
#X connect 16 0 17 0;
#X connect 18 0 5 0;
#X connect 19 0 20 0;
#X connect 20 0 21 0;
#X connect 21 0 22 0;
#X connect 21 1 23 0;
#X connect 21 2 24 0;
#X connect 21 3 25 0;
#X connect 21 4 26 0;
#X connect 21 5 27 0;
#X connect 21 6 28 0;
#X connect 21 7 29 0;
#X connect 21 8 30 0;
#X connect 21 9 31 0;
#X connect 22 0 3 0;
#X connect 23 0 3 0;
#X connect 24 0 3 0;
#X connect 25 0 3 0;
#X connect 26 0 3 0;
#X connect 27 0 3 0;
#X connect 28 0 3 0;
#X connect 29 0 3 0;
#X connect 30 0 3 0;
#X connect 31 0 3 0;
