#N canvas 549 252 681 765 10;
#X obj 27 221 tgl 15 0 is-recording empty s:is-recording 17 7 0 10
-262144 -1 -1 0 1;
#X obj 27 155 receive fromGUI;
#X obj 27 177 list trim;
#X obj 27 199 route /tgl.record;
#X obj 218 98 receive fromSystem;
#X obj 218 120 list trim;
#X obj 218 142 route /page;
#X msg 218 204 0;
#X obj 218 164 bng 15 250 50 0 empty empty empty 17 7 0 10 -262144
-1 -1;
#X text 250 181 page change automatically turns 'recording mode' off
;
#X text 51 308 rec/play objects bank;
#X text 225 369 globally being turned on/off \, 'recording mode' messages
from network/local gui msg will play sounds in recording mode net msg.
will be blocked and gui touches will activate recording not playing.
;
#X obj 75 346 recplay-obj-net C4;
#X obj 75 566 recplay-obj saying;
#X obj 75 646 play-obj construction_1;
#X obj 218 248 send toGUI;
#X text 174 27 ph-orchestra-inst/edelweiss @ camino de ansan 2016;
#X msg 218 226 list /tgl.record \$1;
#X obj 75 586 recplay-obj scream;
#X obj 75 606 recplay-obj animal;
#X obj 505 234 loadbang;
#X msg 505 256 0.7;
#X floatatom 505 278 5 0 0 0 s:mastervol - mastervol, f 5;
#X obj 75 666 play-obj construction_2;
#X obj 423 548 table clap;
#X obj 423 526 soundfiler;
#X msg 423 504 read -resize clap.wav clap;
#X obj 423 583 receive fromNetwork;
#X obj 423 605 list trim;
#X obj 423 669 tabplay~ clap;
#X obj 423 649 bng 15 250 50 0 empty empty empty 17 7 0 10 -262144
-1 -1;
#X obj 423 691 dac~;
#X obj 423 627 route /clap;
#X text 453 456 network test : clap!;
#X obj 75 366 recplay-obj-net D4;
#X obj 75 386 recplay-obj-net E4;
#X obj 75 406 recplay-obj-net F4;
#X obj 75 426 recplay-obj-net G4;
#X obj 75 446 recplay-obj-net A4;
#X obj 75 466 recplay-obj-net B4;
#X obj 75 486 recplay-obj-net C5;
#X obj 75 506 recplay-obj-net D5;
#X obj 75 526 recplay-obj-net E5;
#X obj 27 111 tgl 15 0 is-recording empty s:is-recording 17 7 0 10
-262144 -1 -1 0 1;
#X obj 27 67 loadbang;
#X msg 27 89 0;
#X obj 423 482 loadbang;
#X connect 1 0 2 0;
#X connect 2 0 3 0;
#X connect 3 0 0 0;
#X connect 4 0 5 0;
#X connect 5 0 6 0;
#X connect 6 0 8 0;
#X connect 7 0 0 0;
#X connect 7 0 17 0;
#X connect 8 0 7 0;
#X connect 17 0 15 0;
#X connect 20 0 21 0;
#X connect 21 0 22 0;
#X connect 26 0 25 0;
#X connect 27 0 28 0;
#X connect 28 0 32 0;
#X connect 29 0 31 0;
#X connect 29 0 31 1;
#X connect 30 0 29 0;
#X connect 32 0 30 0;
#X connect 44 0 45 0;
#X connect 45 0 43 0;
#X connect 46 0 26 0;
