#N canvas 748 126 681 765 10;
#X obj 27 221 tgl 15 0 is-recording empty s:is-recording 17 7 0 10
-262144 -1 -1 0 1;
#X obj 27 155 receive fromGUI;
#X obj 27 177 list trim;
#X obj 27 199 route /tgl.record;
#X obj 218 98 receive fromSystem;
#X obj 218 120 list trim;
#X obj 218 142 route /page;
#X msg 218 204 0;
#X obj 218 164 bng 15 250 50 0 empty empty empty 17 7 0 10 -262144
-1 -1;
#X text 250 181 page change automatically turns 'recording mode' off
;
#X text 51 308 rec/play objects bank;
#X text 225 369 globally being turned on/off \, 'recording mode' messages
from network/local gui msg will play sounds in recording mode net msg.
will be blocked and gui touches will activate recording not playing.
;
#X obj 75 346 recplay-obj-net C4;
#X obj 75 566 recplay-obj saying;
#X obj 75 646 play-obj construction_1;
#X obj 218 248 send toGUI;
#X text 174 27 ph-orchestra-inst/edelweiss @ camino de ansan 2016;
#X msg 218 226 list /tgl.record \$1;
#X obj 423 548 table clap;
#X obj 423 526 soundfiler;
#X msg 423 504 read -resize clap.wav clap;
#X obj 423 583 receive fromNetwork;
#X obj 423 605 list trim;
#X obj 423 669 tabplay~ clap;
#X obj 423 649 bng 15 250 50 0 empty empty empty 17 7 0 10 -262144
-1 -1;
#X obj 423 691 dac~;
#X obj 423 627 route /clap;
#X text 453 456 network test : clap!;
#X obj 27 111 tgl 15 0 is-recording empty s:is-recording 17 7 0 10
-262144 -1 -1 0 1;
#X obj 27 67 loadbang;
#X msg 27 89 0;
#X obj 423 482 loadbang;
#X obj 75 366 recplay-obj-net D4;
#X obj 75 386 recplay-obj-net E4;
#X obj 75 406 recplay-obj-net F4;
#X obj 75 426 recplay-obj-net G4;
#X obj 75 446 recplay-obj-net A4;
#X obj 75 466 recplay-obj-net B4;
#X obj 75 486 recplay-obj-net C5;
#X obj 75 506 recplay-obj-net D5;
#X obj 75 526 recplay-obj-net E5;
#X obj 75 666 play-obj construction_2;
#N canvas 926 347 740 520 mastervol 0;
#X floatatom 479 199 5 0 0 1 s:mastervol - mastervol, f 5;
#X obj 99 27 receive fromGUI;
#X obj 99 49 list trim;
#X obj 99 71 route /knb.mastervol /btn.mastervol.multiplier.2times
/btn.mastervol.multiplier.half, f 35;
#X obj 111 476 v mastervol-multiplier;
#X obj 111 414 loadbang;
#X msg 179 437 set \$1;
#X obj 479 128 v mastervol-multiplier;
#X obj 447 155 *;
#X obj 260 271 v mastervol-multiplier;
#X obj 179 335 v mastervol-multiplier;
#X obj 211 401 v mastervol-multiplier;
#X obj 179 379 t a a;
#X obj 179 313 route 1;
#X obj 260 249 route 1;
#X obj 447 40 loadbang;
#X obj 447 62 metro 500;
#X obj 447 84 t b b;
#X obj 447 106 v mastervol-value;
#X text 552 57 master volume updater;
#X obj 179 357 * 2;
#X obj 260 293 / 2;
#X obj 31 140 loadbang;
#X msg 99 163 set \$1;
#X msg 31 180 0.699989;
#X obj 99 119 t a a;
#X obj 131 141 v mastervol-value;
#X obj 63 224 v mastervol-value;
#X obj 31 268 send toGUI;
#X msg 31 246 list /knb.mastervol \$1;
#X obj 31 202 t a a;
#X obj 427 47 bng 15 250 50 0 empty empty empty 17 7 0 10 -262144 -1
-1;
#X msg 111 454 1;
#X obj 447 177 t a a;
#X msg 447 224 list /lbl.mastervol \$1;
#X obj 447 246 send toGUI;
#X connect 1 0 2 0;
#X connect 2 0 3 0;
#X connect 3 0 25 0;
#X connect 3 1 13 0;
#X connect 3 2 14 0;
#X connect 5 0 32 0;
#X connect 6 0 32 0;
#X connect 7 0 8 1;
#X connect 8 0 33 0;
#X connect 9 0 21 0;
#X connect 10 0 20 0;
#X connect 12 0 6 0;
#X connect 12 1 11 0;
#X connect 13 0 10 0;
#X connect 14 0 9 0;
#X connect 15 0 16 0;
#X connect 16 0 17 0;
#X connect 17 0 18 0;
#X connect 17 1 7 0;
#X connect 18 0 8 0;
#X connect 20 0 12 0;
#X connect 21 0 12 0;
#X connect 22 0 24 0;
#X connect 23 0 24 0;
#X connect 24 0 30 0;
#X connect 25 0 23 0;
#X connect 25 1 26 0;
#X connect 29 0 28 0;
#X connect 30 0 29 0;
#X connect 30 1 27 0;
#X connect 31 0 16 0;
#X connect 32 0 4 0;
#X connect 33 0 34 0;
#X connect 33 1 0 0;
#X connect 34 0 35 0;
#X restore 478 112 pd mastervol;
#X msg 457 302 \; pd-main.pd menusave;
#X obj 457 280 metro 500;
#X obj 457 258 loadbang;
#X text 481 235 autosaving...;
#X obj 428 265 bng 15 250 50 0 empty empty empty 17 7 0 10 -262144
-1 -1;
#X obj 75 586 recplay-obj scream;
#X obj 75 606 recplay-obj animal;
#X connect 1 0 2 0;
#X connect 2 0 3 0;
#X connect 3 0 0 0;
#X connect 4 0 5 0;
#X connect 5 0 6 0;
#X connect 6 0 8 0;
#X connect 7 0 0 0;
#X connect 7 0 17 0;
#X connect 8 0 7 0;
#X connect 17 0 15 0;
#X connect 20 0 19 0;
#X connect 21 0 22 0;
#X connect 22 0 26 0;
#X connect 23 0 25 0;
#X connect 23 0 25 1;
#X connect 24 0 23 0;
#X connect 26 0 24 0;
#X connect 29 0 30 0;
#X connect 30 0 28 0;
#X connect 31 0 20 0;
#X connect 44 0 43 0;
#X connect 45 0 44 0;
#X connect 47 0 44 0;
