#N canvas 685 358 512 551 10;
#X obj 24 156 receive fromGUI;
#X obj 24 178 list trim;
#X obj 322 452 recorder;
#X obj 322 356 loadbang;
#X obj 322 400 makefilename %s.wav;
#X obj 84 255 makefilename /%s;
#X obj 322 378 symbol \$1;
#X obj 84 208 loadbang;
#X obj 84 230 symbol \$1;
#X text 21 35 \$1 : name \, /'name' is related msg. 'name'.wav is the
file etc., f 62;
#X obj 24 285 route sym;
#X msg 54 463 play;
#X msg 54 355 stop;
#X obj 24 307 route 1 0;
#X obj 24 329 bng 15 250 50 0 empty empty empty 17 7 0 10 -262144 -1
-1;
#X obj 54 329 bng 15 250 50 0 empty empty empty 17 7 0 10 -262144 -1
-1;
#X text 4 8 .anchor.;
#X text 430 515 .anchor.;
#X floatatom 375 433 5 0 0 1 r:mastervol mastervol -, f 5;
#X connect 0 0 1 0;
#X connect 1 0 10 0;
#X connect 3 0 6 0;
#X connect 4 0 2 0;
#X connect 5 0 10 1;
#X connect 6 0 4 0;
#X connect 7 0 8 0;
#X connect 8 0 5 0;
#X connect 10 0 13 0;
#X connect 11 0 2 0;
#X connect 12 0 2 0;
#X connect 13 0 14 0;
#X connect 13 1 15 0;
#X connect 14 0 11 0;
#X connect 15 0 12 0;
#X connect 18 0 2 1;
