#N canvas 1368 242 512 551 10;
#X obj 24 156 receive fromGUI;
#X obj 24 178 list trim;
#X obj 204 396 loadbang;
#X obj 204 440 makefilename %s.wav;
#X obj 84 252 makefilename /%s;
#X obj 204 418 symbol \$1;
#X obj 84 208 loadbang;
#X obj 84 230 symbol \$1;
#X text 21 35 \$1 : name \, /'name' is related msg. 'name'.wav is the
file etc., f 62;
#X obj 24 285 route sym;
#X obj 24 307 route 1 0;
#X obj 24 329 bng 15 250 50 0 empty empty empty 17 7 0 10 -262144 -1
-1;
#X obj 54 329 bng 15 250 50 0 empty empty empty 17 7 0 10 -262144 -1
-1;
#X text 4 8 .anchor.;
#X text 430 515 .anchor.;
#X floatatom 264 473 5 0 0 1 r:mastervol mastervol -, f 5;
#X msg 24 393 play_start;
#X msg 54 355 play_stop;
#X obj 204 492 recorder2;
#X obj 234 285 route sym;
#X obj 294 252 makefilename /tgl.eff.%s;
#X obj 234 156 receive fromGUI;
#X obj 234 178 list trim;
#X obj 294 208 loadbang;
#X obj 294 230 symbol \$1;
#X obj 234 307 tgl 15 0 empty empty empty 17 7 0 10 -262144 -1 -1 1
1;
#X connect 0 0 1 0;
#X connect 1 0 9 0;
#X connect 2 0 5 0;
#X connect 3 0 18 0;
#X connect 4 0 9 1;
#X connect 5 0 3 0;
#X connect 6 0 7 0;
#X connect 7 0 4 0;
#X connect 9 0 10 0;
#X connect 10 0 11 0;
#X connect 10 1 12 0;
#X connect 11 0 16 0;
#X connect 12 0 17 0;
#X connect 15 0 18 2;
#X connect 16 0 18 0;
#X connect 17 0 18 0;
#X connect 19 0 25 0;
#X connect 20 0 19 1;
#X connect 21 0 22 0;
#X connect 22 0 19 0;
#X connect 23 0 24 0;
#X connect 24 0 20 0;
#X connect 25 0 18 1;
