#N canvas 3 68 1105 450 10;
#X obj 771 190 print [to.writesf~];
#X text 1025 413 .anchor.;
#X text 8 8 .anchor.;
#X obj 754 218 writesf~;
#X msg 914 201 start;
#X msg 973 201 stop;
#X obj 973 175 bng 15 250 50 0 empty \$0-rec-stop r:0-rec-stop 17 7
0 10 -262144 -1 -1;
#X obj 709 202 adc~;
#N canvas 0 50 450 278 (subpatch) 0;
#X array \$0-rec-buffer 161502 float 2;
#X coords 0 1 161502 -1 100 50 1 0 0;
#X restore 113 285 graph;
#X obj 549 108 bng 15 250 50 0 empty \$0-rec-stop r:0-rec-stop 17 7
0 10 -262144 -1 -1;
#X msg 754 163 open \$1;
#X obj 914 118 t b b;
#X msg 398 118 set symbol \$1;
#X msg 754 107 set symbol \$1;
#X obj 375 90 t b a a;
#X obj 169 211 bng 15 250 50 0 \$0-preview-start empty s:0-preview-start
17 7 0 10 -262144 -1 -1;
#X obj 91 107 bng 15 250 50 0 \$0-rec-stop empty s:0-rec-stop 17 7
0 10 -262144 -1 -1;
#X obj 13 211 bng 15 250 50 0 \$0-rec-start empty s:0-rec-start 17
7 0 10 -262144 -1 -1;
#X obj 247 107 bng 15 250 50 0 \$0-preview-stop empty s:0-preview-stop
17 7 0 10 -262144 -1 -1;
#X obj 549 128 del 100;
#X obj 914 98 bng 15 250 50 0 empty \$0-rec-start r:0-rec-start 17
7 0 10 -262144 -1 -1;
#X msg 375 145 symbol ctr1.wav;
#X msg 754 135 symbol ctr1.wav;
#X obj 13 51 inlet;
#X text 66 51 inlet [1] (cmds);
#X text 397 68 (otherwise) : file name;
#X obj 525 195 f \$0;
#X obj 525 173 loadbang;
#X msg 375 234 read -resize \$1 \$2-rec-buffer;
#X obj 375 212 pack s f;
#X obj 716 375 inlet;
#X obj 13 73 route rec_start rec_stop play_start play_stop;
#X obj 45 182 bng 15 250 50 0 \$0-preview-stop empty s:0-preview-stop
17 7 0 10 -262144 -1 -1;
#X obj 13 154 t b b;
#X obj 169 154 t b b;
#X obj 201 182 bng 15 250 50 0 \$0-rec-stop empty s:0-rec-stop 17 7
0 10 -262144 -1 -1;
#X obj 375 256 soundfiler;
#X floatatom 375 278 12 0 0 3 s:0-samplesize - #0-samplesize, f 12
;
#N canvas 1128 322 789 619 play_with_effect 1;
#X obj 130 209 + 1;
#X floatatom 130 237 5 0 0 1 playbackspeed - -, f 5;
#X obj 84 156 moses 0;
#X floatatom 84 184 5 0 0 0 - - -, f 5;
#X floatatom 130 184 5 0 0 0 - - -, f 5;
#X obj 84 209 * -1;
#X obj 84 237 * 500;
#X floatatom 84 293 5 0 0 1 delay_ms - -, f 5;
#X obj 84 265 max 0;
#X obj 84 380 line~;
#X obj 222 145 < 0;
#X obj 222 173 tgl 15 0 empty empty delay-sel 17 7 0 10 -262144 -1
-1 0 1;
#X msg 84 352 \$1 700;
#X obj 17 19 r fromSystem;
#X obj 17 47 route list;
#X obj 17 103 unpack f f;
#X floatatom 84 131 5 0 0 1 tilt_y - -, f 5;
#X obj 17 75 route /tilts;
#X obj 355 366 phasor~;
#X obj 355 163 samplerate~;
#X obj 355 226 /;
#X floatatom 355 191 7 0 0 1 samplerate - -, f 7;
#X floatatom 355 282 5 0 0 1 playback_speed_x1 - -, f 5;
#X obj 355 394 *~;
#X floatatom 355 341 5 0 0 0 - - -, f 5;
#X obj 568 379 metro 200;
#X floatatom 568 435 5 0 0 0 - - -, f 5;
#X obj 568 407 v \$0-playspeed_x1;
#X obj 366 305 v \$0-playspeed_x1;
#X obj 594 307 v \$0-playspeed_x1;
#X obj 355 462 *~;
#X obj 623 445 inlet;
#X obj 562 324 *;
#X text 603 280 2-play speed : 1 for x1;
#X obj 562 279 t a b;
#X obj 568 353 tgl 15 0 empty empty empty 17 7 0 10 -262144 -1 -1 0
1;
#X obj 355 135 t b a;
#X obj 142 578 dac~;
#N canvas 3 398 292 218 delayed 0;
#X obj 15 35 inlet~;
#X obj 15 133 outlet~;
#X obj 66 84 *~ 0.7;
#X text 7 4 .anchor.;
#X text 199 171 .anchor.;
#X obj 203 35 inlet;
#X obj 203 91 switch~;
#X obj 203 63 == 1;
#X obj 203 119 tgl 15 0 empty empty empty 17 7 0 10 -262144 -1 -1 0
1;
#X obj 15 105 vd~ \$0-del;
#X obj 138 88 inlet~;
#X obj 15 63 delwrite~ \$0-del 1000;
#X connect 0 0 11 0;
#X connect 2 0 11 0;
#X connect 5 0 7 0;
#X connect 7 0 6 0;
#X connect 7 0 8 0;
#X connect 9 0 2 0;
#X connect 9 0 1 0;
#X connect 10 0 9 0;
#X restore 108 526 pd delayed;
#X obj 222 378 tgl 15 0 empty empty empty 17 7 0 10 -262144 -1 -1 0
1;
#N canvas 3 85 279 227 nodelay 0;
#X obj 26 33 inlet~;
#X obj 26 89 outlet~;
#X obj 123 33 inlet;
#X obj 123 89 switch~;
#X obj 26 61 *~ 1;
#X text 7 6 .anchor.;
#X text 159 140 .anchor.;
#X obj 123 61 == 0;
#X obj 123 117 tgl 15 0 empty empty empty 17 7 0 10 -262144 -1 -1 0
1;
#X connect 0 0 4 0;
#X connect 2 0 7 0;
#X connect 4 0 1 0;
#X connect 7 0 3 0;
#X connect 7 0 8 0;
#X restore 205 526 pd nodelay;
#X obj 355 422 tabread~ \$0-rec-buffer;
#X obj 222 19 inlet;
#X obj 222 47 switch~;
#X floatatom 436 380 12 0 0 2 r:0-samplesize #0-samplesize -, f 12
;
#X floatatom 355 110 12 0 0 2 r:0-samplesize #0-samplesize -, f 12
;
#X obj 617 100 bng 15 250 50 0 empty \$0-preview-stop r:0-preview-stop
17 7 0 10 -262144 -1 -1;
#X obj 580 79 bng 15 250 50 0 empty \$0-preview-start r:0-preview-start
17 7 0 10 -262144 -1 -1;
#X msg 617 120 0;
#X msg 356 34 set \$1;
#X msg 580 99 1;
#X obj 580 159 tgl 15 0 empty empty empty 17 7 0 10 -262144 -1 -1 1
1;
#X obj 562 251 *;
#X connect 0 0 1 0;
#X connect 1 0 52 0;
#X connect 2 0 3 0;
#X connect 2 1 4 0;
#X connect 3 0 5 0;
#X connect 4 0 0 0;
#X connect 5 0 6 0;
#X connect 6 0 8 0;
#X connect 7 0 12 0;
#X connect 8 0 7 0;
#X connect 9 0 38 1;
#X connect 10 0 11 0;
#X connect 11 0 39 0;
#X connect 12 0 9 0;
#X connect 13 0 14 0;
#X connect 14 0 17 0;
#X connect 15 1 16 0;
#X connect 16 0 10 0;
#X connect 16 0 2 0;
#X connect 17 0 15 0;
#X connect 18 0 23 0;
#X connect 19 0 21 0;
#X connect 20 0 22 0;
#X connect 21 0 20 0;
#X connect 22 0 24 0;
#X connect 22 0 28 0;
#X connect 23 0 41 0;
#X connect 24 0 18 0;
#X connect 25 0 27 0;
#X connect 27 0 26 0;
#X connect 29 0 32 1;
#X connect 30 0 38 0;
#X connect 30 0 40 0;
#X connect 31 0 30 1;
#X connect 32 0 24 0;
#X connect 34 0 32 0;
#X connect 34 1 29 0;
#X connect 35 0 25 0;
#X connect 36 0 19 0;
#X connect 36 1 20 1;
#X connect 38 0 37 0;
#X connect 38 0 37 1;
#X connect 39 0 40 1;
#X connect 39 0 38 2;
#X connect 40 0 37 0;
#X connect 40 0 37 1;
#X connect 41 0 30 0;
#X connect 42 0 43 0;
#X connect 44 0 23 1;
#X connect 45 0 36 0;
#X connect 46 0 48 0;
#X connect 47 0 50 0;
#X connect 48 0 51 0;
#X connect 50 0 51 0;
#X connect 51 0 52 1;
#X connect 52 0 34 0;
#X restore 375 392 pd play_with_effect;
#N canvas 1127 63 421 188 play_no_effect 1;
#X obj 350 96 inlet;
#X obj 30 17 inlet;
#X obj 30 45 switch~;
#X obj 128 149 dac~;
#X msg 128 63 0;
#X msg 165 64 stop;
#X obj 128 91 tabplay~ \$0-rec-buffer;
#X obj 128 113 *~;
#X obj 165 38 bng 15 250 50 0 empty \$0-preview-stop r:0-preview-stop
17 7 0 10 -262144 -1 -1;
#X obj 128 17 bng 15 250 50 0 empty \$0-preview-start r:0-preview-start
17 7 0 10 -262144 -1 -1;
#X connect 0 0 7 1;
#X connect 1 0 2 0;
#X connect 4 0 6 0;
#X connect 5 0 6 0;
#X connect 6 0 7 0;
#X connect 7 0 3 0;
#X connect 7 0 3 1;
#X connect 8 0 5 0;
#X connect 9 0 4 0;
#X restore 552 392 pd play_no_effect;
#X text 766 376 inlet [3] (volume);
#X obj 375 353 == 1;
#X obj 552 353 == 0;
#X obj 507 338 tgl 15 0 empty empty empty 17 7 0 10 -262144 -1 -1 0
1;
#X obj 507 310 inlet;
#X text 555 311 inlet [2] (effector-sw);
#X obj 767 299 loadbang;
#X msg 767 321 0;
#X connect 4 0 3 0;
#X connect 5 0 3 0;
#X connect 6 0 5 0;
#X connect 7 0 3 0;
#X connect 9 0 19 0;
#X connect 10 0 0 0;
#X connect 10 0 3 0;
#X connect 11 0 4 0;
#X connect 11 1 22 0;
#X connect 12 0 21 0;
#X connect 13 0 22 0;
#X connect 14 0 21 0;
#X connect 14 1 12 0;
#X connect 14 2 13 0;
#X connect 19 0 21 0;
#X connect 20 0 11 0;
#X connect 21 0 29 0;
#X connect 22 0 10 0;
#X connect 23 0 31 0;
#X connect 26 0 29 1;
#X connect 27 0 26 0;
#X connect 28 0 36 0;
#X connect 29 0 28 0;
#X connect 30 0 38 1;
#X connect 30 0 39 1;
#X connect 31 0 33 0;
#X connect 31 1 16 0;
#X connect 31 2 34 0;
#X connect 31 3 18 0;
#X connect 31 4 14 0;
#X connect 33 0 17 0;
#X connect 33 1 32 0;
#X connect 34 0 15 0;
#X connect 34 1 35 0;
#X connect 36 0 37 0;
#X connect 41 0 38 0;
#X connect 42 0 39 0;
#X connect 43 0 42 0;
#X connect 43 0 41 0;
#X connect 44 0 43 0;
#X connect 46 0 47 0;
#X connect 47 0 43 0;
