#N canvas 761 260 683 545 10;
#X obj 24 86 receive fromGUI;
#X obj 24 108 list trim;
#X obj 242 326 loadbang;
#X obj 242 370 makefilename %s.wav;
#X obj 84 185 makefilename /%s;
#X obj 242 348 symbol \$1;
#X obj 84 138 loadbang;
#X obj 84 160 symbol \$1;
#X text 21 35 \$1 : name \, /'name' is related msg. 'name'.wav is the
file etc., f 62;
#X obj 24 215 route sym;
#X obj 523 385 bng 15 250 50 0 empty empty rec-play-mode-chg 17 7 0
10 -262144 -1 -1;
#X obj 453 370 tgl 15 0 empty is-recording r:is-recording 17 7 0 10
-262144 -1 -1 0 1;
#X obj 42 400 tgl 15 0 empty is-recording r:is-recording 17 7 0 10
-262144 -1 -1 0 1;
#X obj 24 237 route 1 0;
#X obj 24 259 bng 15 250 50 0 empty empty empty 17 7 0 10 -262144 -1
-1;
#X obj 54 259 bng 15 250 50 0 empty empty empty 17 7 0 10 -262144 -1
-1;
#X obj 24 419 f;
#X obj 24 441 route 1 0;
#X text 4 8 .anchor.;
#X text 600 505 .anchor.;
#X floatatom 302 403 5 0 0 1 r:mastervol mastervol -, f 5;
#X msg 523 405 rec_stop;
#X msg 24 485 rec_start;
#X msg 54 463 play_start;
#X obj 72 270 tgl 15 0 empty is-recording r:is-recording 17 7 0 10
-262144 -1 -1 0 1;
#X obj 54 289 f;
#X msg 54 355 rec_stop;
#X msg 84 333 play_stop;
#X obj 54 311 route 1 0;
#X obj 242 422 recorder2;
#X obj 272 215 route sym;
#X obj 332 182 makefilename /tgl.eff.%s;
#X obj 272 86 receive fromGUI;
#X obj 272 108 list trim;
#X obj 332 138 loadbang;
#X obj 332 160 symbol \$1;
#X obj 272 237 tgl 15 0 empty empty empty 17 7 0 10 -262144 -1 -1 0
1;
#X connect 0 0 1 0;
#X connect 1 0 9 0;
#X connect 2 0 5 0;
#X connect 3 0 29 0;
#X connect 4 0 9 1;
#X connect 5 0 3 0;
#X connect 6 0 7 0;
#X connect 7 0 4 0;
#X connect 9 0 13 0;
#X connect 10 0 21 0;
#X connect 11 0 10 0;
#X connect 12 0 16 1;
#X connect 13 0 14 0;
#X connect 13 1 15 0;
#X connect 14 0 16 0;
#X connect 15 0 25 0;
#X connect 16 0 17 0;
#X connect 17 0 22 0;
#X connect 17 1 23 0;
#X connect 20 0 29 2;
#X connect 21 0 29 0;
#X connect 22 0 29 0;
#X connect 23 0 29 0;
#X connect 24 0 25 1;
#X connect 25 0 28 0;
#X connect 26 0 29 0;
#X connect 27 0 29 0;
#X connect 28 0 26 0;
#X connect 28 1 27 0;
#X connect 30 0 36 0;
#X connect 31 0 30 1;
#X connect 32 0 33 0;
#X connect 33 0 30 0;
#X connect 34 0 35 0;
#X connect 35 0 31 0;
#X connect 36 0 29 1;
