#N canvas 637 73 471 421 10;
#X obj 21 172 soundfiler;
#X text -2 6 .anchor.;
#X floatatom 21 200 12 0 0 3 samplesize - -, f 12;
#X text 235 15 designed by D. Yi @ 2014 fall;
#X obj 21 45 inlet;
#X obj 141 73 loadbang;
#X obj 224 144 table \$0-playBuf 8820;
#X obj 47 262 inlet;
#X obj 21 332 *~;
#X obj 355 315 inlet;
#X text 395 378 .anchor.;
#X obj 21 114 pack s f;
#X msg 21 144 read -resize \$1 \$2-playBuf;
#X text 331 337 3-volume;
#X obj 141 97 f \$0;
#X text 60 45 1-soundfile name symbol;
#X obj 21 354 dac~;
#X obj 21 310 tabplay~ \$0-playBuf;
#X text 92 263 2-play bng : bng for a shot;
#X connect 0 0 2 0;
#X connect 4 0 11 0;
#X connect 5 0 14 0;
#X connect 7 0 17 0;
#X connect 8 0 16 0;
#X connect 8 0 16 1;
#X connect 9 0 8 1;
#X connect 11 0 12 0;
#X connect 12 0 0 0;
#X connect 14 0 11 1;
#X connect 17 0 8 0;
