#N canvas 437 448 480 233 10;
#X obj 286 111 osc~;
#X obj 286 89 mtof;
#X obj 19 22 receive fromGUI;
#X obj 19 44 list trim;
#X obj 79 74 loadbang;
#X obj 19 151 route sym;
#X floatatom 355 125 5 0 0 1 r:mastervol mastervol -, f 5;
#X obj 286 175 dac~;
#X obj 286 139 *~;
#X obj 19 173 tgl 15 0 empty empty empty 17 7 0 10 -262144 -1 -1 0
1;
#X obj 19 193 switch~;
#X obj 286 45 loadbang;
#X obj 286 67 f \$1;
#X obj 79 96 f \$1;
#X obj 79 121 makefilename /btn.tone.%d;
#X connect 0 0 8 0;
#X connect 1 0 0 0;
#X connect 2 0 3 0;
#X connect 3 0 5 0;
#X connect 4 0 13 0;
#X connect 5 0 9 0;
#X connect 6 0 8 1;
#X connect 8 0 7 0;
#X connect 8 0 7 1;
#X connect 9 0 10 0;
#X connect 11 0 12 0;
#X connect 12 0 1 0;
#X connect 13 0 14 0;
#X connect 14 0 5 1;
