#N canvas 267 87 779 422 10;
#X obj 195 97 == 0;
#X obj 115 190 f;
#X text 5 92 up/down counter with limits;
#X floatatom 115 268 5 0 0 0 - - -, f 5;
#X obj 162 148 spigot;
#X obj 209 148 spigot;
#X obj 242 97 != 0;
#X obj 115 165 t b;
#X obj 195 125 tgl 15 0 empty empty empty 17 7 0 10 -262144 -1 -1 0
1;
#X obj 242 125 tgl 15 0 empty empty empty 17 7 0 10 -262144 -1 -1 0
1;
#X obj 209 173 +;
#X text 446 135 'up-counting step.';
#X obj 162 173 -;
#X text 309 135 'down-counting step.';
#X text 309 197 'min. count(age)';
#X text 447 177 'max. count(age)';
#X obj 115 215 min;
#X obj 115 240 max;
#X text -27 -3 .anchor.;
#X text 541 333 .anchor.;
#X text 127 12 [note] below \, implementing 'aging mechanism' for decision
making on 'is it -ing? or not.';
#X obj 195 70 inlet;
#X obj 115 321 outlet;
#X text 296 57 [parameters];
#X text 300 79 1) 'down-counting step.';
#X text 457 79 2) 'up-counting step.';
#X text 300 94 3) 'min. count(age)';
#X text 457 94 4) 'max. count(age)';
#X obj 115 294 / \$2;
#X text 181 299 result is normailized 0-1;
#X obj 312 156 f \$3;
#X obj 484 156 f \$4;
#X obj 484 198 f \$2;
#X obj 312 223 f \$1;
#X obj 658 139 loadbang;
#X obj 658 181 t b;
#X obj 658 206 t b;
#X connect 0 0 8 0;
#X connect 1 0 16 0;
#X connect 3 0 28 0;
#X connect 4 0 12 0;
#X connect 5 0 10 0;
#X connect 6 0 9 0;
#X connect 7 0 1 0;
#X connect 8 0 4 1;
#X connect 9 0 5 1;
#X connect 10 0 1 1;
#X connect 12 0 1 1;
#X connect 16 0 17 0;
#X connect 17 0 4 0;
#X connect 17 0 5 0;
#X connect 17 0 3 0;
#X connect 21 0 0 0;
#X connect 21 0 6 0;
#X connect 21 0 7 0;
#X connect 28 0 22 0;
#X connect 30 0 12 1;
#X connect 31 0 10 1;
#X connect 32 0 16 1;
#X connect 33 0 17 1;
#X connect 34 0 30 0;
#X connect 34 0 31 0;
#X connect 34 0 35 0;
#X connect 34 0 36 0;
#X connect 35 0 32 0;
#X connect 36 0 33 0;
