#N canvas 237 248 924 430 10;
#N canvas 250 196 491 334 pitchdetect 0;
#X obj 200 263 outlet;
#X text 258 262 1-note detected in symbol;
#X msg 200 52 symbol /C4;
#X msg 200 72 symbol /D4;
#X msg 200 92 symbol /E4;
#X msg 200 112 symbol /F4;
#X msg 200 132 symbol /G4;
#X msg 200 152 symbol /A4;
#X msg 200 172 symbol /B4;
#X msg 200 192 symbol /C5;
#X obj 43 35 pitchdetect 60 5 62;
#X obj 43 55 pitchdetect 62 5 62;
#X obj 43 75 pitchdetect 64 5 62;
#X obj 43 95 pitchdetect 65 5 62;
#X obj 43 115 pitchdetect 67 5 62;
#X obj 43 135 pitchdetect 69 5 62;
#X obj 43 155 pitchdetect 71 5 62;
#X obj 43 175 pitchdetect 72 5 62;
#X obj 43 195 pitchdetect 74 5 62;
#X obj 43 215 pitchdetect 76 5 62;
#X msg 200 212 symbol /D5;
#X msg 200 232 symbol /E5;
#X connect 2 0 0 0;
#X connect 3 0 0 0;
#X connect 4 0 0 0;
#X connect 5 0 0 0;
#X connect 6 0 0 0;
#X connect 7 0 0 0;
#X connect 8 0 0 0;
#X connect 9 0 0 0;
#X connect 10 0 2 0;
#X connect 11 0 3 0;
#X connect 12 0 4 0;
#X connect 13 0 5 0;
#X connect 14 0 6 0;
#X connect 15 0 7 0;
#X connect 16 0 8 0;
#X connect 17 0 9 0;
#X connect 18 0 20 0;
#X connect 19 0 21 0;
#X connect 20 0 0 0;
#X connect 21 0 0 0;
#X restore 39 179 pd pitchdetect;
#X obj 39 60 list trim;
#X obj 39 38 r fromGUI;
#X floatatom 39 104 5 0 0 1 s:monitor-vol - monitor-vol, f 5;
#X obj 59 285 send toNetwork;
#X symbolatom 39 201 10 0 0 0 - - -, f 10;
#X obj 39 320 print sing!;
#X msg 288 215 list /lbl.pitch.monitor \$1;
#X obj 288 237 s toGUI;
#X text 303 174 text (visual) feedback!;
#X msg 630 113 /C4;
#X msg 662 113 /D4;
#X msg 694 113 /E4;
#X msg 726 113 /F4;
#X msg 758 113 /G4;
#X msg 790 113 /A4;
#X msg 822 113 /B4;
#X msg 854 113 /C5;
#X obj 630 44 key;
#X floatatom 630 66 5 0 0 0 - - -, f 5;
#X obj 630 85 route 97 115 100 102 103 104 106 107;
#X text 627 20 simulation by keyboard;
#X obj 584 130 t a;
#X obj 584 328 s fromNetwork;
#X text 635 306 for TEST;
#X obj 213 285 r fromGUI;
#X obj 213 307 list trim;
#X obj 213 373 bng 15 250 50 0 \$0-btn1 empty s:0-btn1 17 7 0 10 -262144
-1 -1;
#X obj 307 373 bng 15 250 50 0 \$0-btn2 empty s:0-btn2 17 7 0 10 -262144
-1 -1;
#X obj 213 329 route /btn.touch1 /btn.touch2 /btn.touch3;
#X obj 402 373 bng 15 250 50 0 \$0-btn3 empty s:0-btn3 17 7 0 10 -262144
-1 -1;
#N canvas 3 68 450 300 touches 0;
#X obj 21 26 bng 15 250 50 0 empty \$0-btn1 r:0-btn1 17 7 0 10 -262144
-1 -1;
#X obj 115 26 bng 15 250 50 0 empty \$0-btn2 r:0-btn2 17 7 0 10 -262144
-1 -1;
#X obj 210 26 bng 15 250 50 0 empty \$0-btn3 r:0-btn3 17 7 0 10 -262144
-1 -1;
#X obj 62 99 bng 15 250 50 0 empty empty empty 17 7 0 10 -262144 -1
-1;
#X obj 308 133 loadbang;
#X obj 33 208 soundshot;
#X obj 113 208 soundshot;
#X obj 193 208 soundshot;
#X obj 143 99 bng 15 250 50 0 empty empty empty 17 7 0 10 -262144 -1
-1;
#X obj 224 99 bng 15 250 50 0 empty empty empty 17 7 0 10 -262144 -1
-1;
#X msg 93 180 1;
#X msg 173 180 1;
#X msg 253 180 1;
#X obj 308 163 loadbang;
#X msg 33 150 b1.wav;
#X msg 113 150 b2.wav;
#X msg 193 150 b3.wav;
#X connect 0 0 3 0;
#X connect 1 0 8 0;
#X connect 2 0 9 0;
#X connect 3 0 5 1;
#X connect 4 0 14 0;
#X connect 4 0 15 0;
#X connect 4 0 16 0;
#X connect 8 0 6 1;
#X connect 9 0 7 1;
#X connect 10 0 5 2;
#X connect 11 0 6 2;
#X connect 12 0 7 2;
#X connect 13 0 10 0;
#X connect 13 0 11 0;
#X connect 13 0 12 0;
#X connect 14 0 5 0;
#X connect 15 0 6 0;
#X connect 16 0 7 0;
#X restore 407 288 pd touches;
#X obj 213 351 route 1;
#X obj 307 351 route 1;
#X obj 402 351 route 1;
#X obj 39 82 route /knb.monitor.vol /tgl.netmsg;
#X obj 156 130 tgl 15 0 \$0-tgl-netmsg empty S:0-tgl-netmsg 17 7 0
10 -262144 -1 -1 0 1;
#X obj 136 248 tgl 15 0 empty \$0-tgl-netmsg r:0-tgl-netmsg 17 7 0
10 -262144 -1 -1 0 1;
#X obj 59 263 spigot;
#X obj 328 77 s toGUI;
#X obj 328 33 loadbang;
#X msg 328 55 list /tgl.netmsg set 0;
#X msg 39 220 list \$1;
#X connect 0 0 5 0;
#X connect 1 0 35 0;
#X connect 2 0 1 0;
#X connect 5 0 42 0;
#X connect 5 0 7 0;
#X connect 7 0 8 0;
#X connect 10 0 22 0;
#X connect 11 0 22 0;
#X connect 12 0 22 0;
#X connect 13 0 22 0;
#X connect 14 0 22 0;
#X connect 15 0 22 0;
#X connect 16 0 22 0;
#X connect 17 0 22 0;
#X connect 18 0 19 0;
#X connect 19 0 20 0;
#X connect 20 0 10 0;
#X connect 20 1 11 0;
#X connect 20 2 12 0;
#X connect 20 3 13 0;
#X connect 20 4 14 0;
#X connect 20 5 15 0;
#X connect 20 6 16 0;
#X connect 20 7 17 0;
#X connect 25 0 26 0;
#X connect 26 0 29 0;
#X connect 29 0 32 0;
#X connect 29 1 33 0;
#X connect 29 2 34 0;
#X connect 32 0 27 0;
#X connect 33 0 28 0;
#X connect 34 0 30 0;
#X connect 35 0 3 0;
#X connect 35 1 36 0;
#X connect 37 0 38 1;
#X connect 38 0 4 0;
#X connect 40 0 41 0;
#X connect 41 0 39 0;
#X connect 42 0 6 0;
#X connect 42 0 38 0;
