#N canvas 283 104 898 626 10;
#X obj 204 204 adc~;
#X obj 376 162 * 0.5;
#X obj 257 231 -;
#X obj 257 319 +;
#X obj 204 226 hip~;
#X obj 204 248 hip~;
#X obj 204 270 hip~;
#X obj 204 292 hip~;
#X obj 204 314 lop~;
#X obj 204 336 lop~;
#X obj 204 358 lop~;
#X obj 204 380 lop~;
#X text 20 250 4 1-pole high pass filter;
#X text 27 338 4 1-pole low pass filter;
#X floatatom 257 142 8 0 0 0 cfreq - -, f 8;
#X floatatom 376 142 8 0 0 0 cbw - -, f 8;
#X floatatom 257 253 8 0 0 1 s:0-cbw-low - #0-cbw-low, f 8;
#X floatatom 257 341 8 0 0 1 s:0-cbw-high - #0-cbw-high, f 8;
#X obj 376 184 t b a;
#X floatatom 257 201 8 0 0 0 - - -, f 8;
#X obj 327 25 loadbang;
#X obj 257 53 f \$1;
#X obj 376 53 f \$2;
#X obj 257 75 mtof;
#X obj 516 548 outlet;
#X obj 639 499 dac~;
#X floatatom 719 441 5 0 0 1 r:monitor-vol monitor-vol -, f 5;
#X obj 639 405 osc~;
#X obj 639 339 loadbang;
#X obj 639 361 f \$1;
#X obj 639 383 mtof;
#X obj 639 477 *~;
#X obj 687 460 f 0.5;
#X obj 687 253 bng 15 250 50 0 empty empty empty 17 7 0 10 -262144
-1 -1;
#X obj 687 273 t b b;
#X obj 747 290 del 200;
#X msg 747 460 0;
#X text 697 220 monitor feedback!;
#X obj 269 468 int;
#X obj 269 424 unpack;
#X floatatom 516 153 5 0 0 0 - - -, f 5;
#X obj 204 402 fiddle~ 1024 1 20 3;
#X obj 149 446 + 0.5;
#X obj 149 468 int;
#X obj 149 424 unpack;
#X obj 188 468 > \$3;
#X obj 149 534 route 1 0;
#X obj 149 490 swap;
#X obj 149 512 pack;
#X floatatom 149 589 5 0 0 1 s:0-pitchin - #0-pitchin, f 5;
#X msg 516 89 1;
#X obj 516 67 route \$1 0;
#X msg 549 89 0;
#X obj 516 172 > 0.5;
#X obj 516 238 t b b;
#X floatatom 516 42 5 0 0 1 r:0-pitchin #0-pitchin -, f 5;
#X obj 656 131 aging 0 10 1 4;
#X obj 548 278 print xx;
#X obj 516 194 change;
#X obj 516 216 sel 1;
#X obj 687 189 sel 1;
#X obj 516 131 aging 0 10 1 4;
#X obj 269 446 + 0;
#X obj 359 446 + 0.5;
#X obj 359 468 int;
#X obj 359 424 unpack;
#X obj 398 468 > \$3;
#X obj 359 490 spigot;
#X floatatom 248 492 5 0 0 0 - - -, f 5;
#X msg 179 561 0;
#X floatatom 237 549 5 0 0 0 - - -, f 5;
#X connect 0 0 4 0;
#X connect 1 0 18 0;
#X connect 2 0 4 1;
#X connect 2 0 5 1;
#X connect 2 0 6 1;
#X connect 2 0 7 1;
#X connect 2 0 16 0;
#X connect 3 0 8 1;
#X connect 3 0 9 1;
#X connect 3 0 10 1;
#X connect 3 0 11 1;
#X connect 3 0 17 0;
#X connect 4 0 5 0;
#X connect 5 0 6 0;
#X connect 6 0 7 0;
#X connect 7 0 8 0;
#X connect 8 0 9 0;
#X connect 9 0 10 0;
#X connect 10 0 11 0;
#X connect 11 0 41 0;
#X connect 14 0 19 0;
#X connect 15 0 1 0;
#X connect 18 0 19 0;
#X connect 18 1 2 1;
#X connect 18 1 3 1;
#X connect 19 0 2 0;
#X connect 19 0 3 0;
#X connect 20 0 21 0;
#X connect 20 0 22 0;
#X connect 21 0 23 0;
#X connect 22 0 15 0;
#X connect 23 0 14 0;
#X connect 26 0 32 1;
#X connect 27 0 31 0;
#X connect 28 0 29 0;
#X connect 29 0 30 0;
#X connect 30 0 27 0;
#X connect 31 0 25 0;
#X connect 31 0 25 1;
#X connect 32 0 31 1;
#X connect 33 0 34 0;
#X connect 34 0 32 0;
#X connect 34 1 35 0;
#X connect 35 0 36 0;
#X connect 36 0 31 1;
#X connect 38 0 68 0;
#X connect 39 0 62 0;
#X connect 40 0 53 0;
#X connect 41 2 39 0;
#X connect 41 2 65 0;
#X connect 41 2 44 0;
#X connect 42 0 43 0;
#X connect 43 0 47 0;
#X connect 44 0 42 0;
#X connect 44 1 45 0;
#X connect 44 1 70 0;
#X connect 45 0 47 1;
#X connect 46 0 49 0;
#X connect 46 1 69 0;
#X connect 47 0 48 0;
#X connect 47 1 48 1;
#X connect 48 0 46 0;
#X connect 50 0 61 0;
#X connect 51 0 50 0;
#X connect 51 1 52 0;
#X connect 52 0 61 0;
#X connect 53 0 58 0;
#X connect 54 0 24 0;
#X connect 54 1 57 0;
#X connect 55 0 51 0;
#X connect 56 0 40 0;
#X connect 58 0 59 0;
#X connect 59 0 54 0;
#X connect 60 0 33 0;
#X connect 61 0 40 0;
#X connect 62 0 38 0;
#X connect 63 0 64 0;
#X connect 64 0 67 0;
#X connect 65 0 63 0;
#X connect 65 1 66 0;
#X connect 66 0 67 1;
#X connect 69 0 49 0;
