#N canvas 3 73 1009 676 10;
#X obj 204 204 adc~;
#X obj 204 402 fiddle~ 1024 1 20 3;
#X obj 376 162 * 0.5;
#X obj 257 231 -;
#X obj 257 319 +;
#X obj 204 226 hip~;
#X obj 204 248 hip~;
#X obj 204 270 hip~;
#X obj 204 292 hip~;
#X obj 204 314 lop~;
#X obj 204 336 lop~;
#X obj 204 358 lop~;
#X obj 204 380 lop~;
#X text 20 250 4 1-pole high pass filter;
#X text 27 338 4 1-pole low pass filter;
#X floatatom 257 142 8 0 0 0 cfreq - -, f 8;
#X floatatom 376 142 8 0 0 0 cbw - -, f 8;
#X floatatom 257 253 8 0 0 1 s:0-cbw-low - #0-cbw-low, f 8;
#X floatatom 257 341 8 0 0 1 s:0-cbw-high - #0-cbw-high, f 8;
#X obj 376 184 t b a;
#X floatatom 257 201 8 0 0 0 - - -, f 8;
#X obj 269 430 unpack;
#X floatatom 269 578 8 0 0 3 s:0-freqin - #0-freqin, f 8;
#X obj 327 25 loadbang;
#X obj 257 53 f \$1;
#X obj 376 53 f \$2;
#X obj 257 75 mtof;
#X floatatom 518 277 5 0 0 0 - - -, f 5;
#X obj 585 108 >;
#X obj 585 176 <;
#X floatatom 631 162 8 0 0 1 r:0-cbw-high #0-cbw-high -, f 8;
#X floatatom 631 94 8 0 0 1 r:0-cbw-low #0-cbw-low -, f 8;
#X obj 518 467 outlet;
#X floatatom 518 46 8 0 0 2 r:0-freqin #0-freqin -, f 8;
#X obj 749 548 dac~;
#X floatatom 829 490 5 0 0 1 r:monitor-vol monitor-vol -, f 5;
#X obj 749 454 osc~;
#X obj 749 388 loadbang;
#X obj 749 410 f \$1;
#X obj 749 432 mtof;
#X obj 749 526 *~;
#X obj 797 509 f 0.5;
#X obj 797 302 bng 15 250 50 0 empty empty empty 17 7 0 10 -262144
-1 -1;
#X obj 797 322 t b b;
#X obj 857 339 del 200;
#X msg 857 509 0;
#X text 807 269 monitor feedback!;
#X obj 269 486 swap;
#X obj 269 508 pack;
#X obj 308 464 > \$3;
#X obj 269 530 route 1 0;
#X msg 299 552 0;
#X obj 269 458 mtof;
#X obj 518 125 *;
#X obj 518 193 *;
#X obj 518 71 t a a a;
#X obj 518 221 route 0;
#X msg 564 249 1;
#X msg 518 249 0;
#X floatatom 518 324 5 0 0 0 - - -, f 5;
#X obj 518 343 > 0.5;
#X obj 518 391 change;
#X obj 518 413 sel 1;
#X floatatom 216 458 5 0 0 0 - - -, f 5;
#X obj 518 302 aging 0 20 1 10;
#X obj 617 408 tgl 15 0 empty empty empty 17 7 0 10 -262144 -1 -1 0
1;
#X connect 0 0 5 0;
#X connect 1 2 21 0;
#X connect 2 0 19 0;
#X connect 3 0 5 1;
#X connect 3 0 6 1;
#X connect 3 0 7 1;
#X connect 3 0 8 1;
#X connect 3 0 17 0;
#X connect 4 0 9 1;
#X connect 4 0 10 1;
#X connect 4 0 11 1;
#X connect 4 0 12 1;
#X connect 4 0 18 0;
#X connect 5 0 6 0;
#X connect 6 0 7 0;
#X connect 7 0 8 0;
#X connect 8 0 9 0;
#X connect 9 0 10 0;
#X connect 10 0 11 0;
#X connect 11 0 12 0;
#X connect 12 0 1 0;
#X connect 15 0 20 0;
#X connect 16 0 2 0;
#X connect 19 0 20 0;
#X connect 19 1 3 1;
#X connect 19 1 4 1;
#X connect 20 0 3 0;
#X connect 20 0 4 0;
#X connect 21 0 52 0;
#X connect 21 0 63 0;
#X connect 21 1 49 0;
#X connect 23 0 24 0;
#X connect 23 0 25 0;
#X connect 24 0 26 0;
#X connect 25 0 16 0;
#X connect 26 0 15 0;
#X connect 27 0 64 0;
#X connect 28 0 53 1;
#X connect 29 0 54 1;
#X connect 30 0 29 1;
#X connect 31 0 28 1;
#X connect 33 0 55 0;
#X connect 35 0 41 1;
#X connect 36 0 40 0;
#X connect 37 0 38 0;
#X connect 38 0 39 0;
#X connect 39 0 36 0;
#X connect 40 0 34 0;
#X connect 40 0 34 1;
#X connect 41 0 40 1;
#X connect 42 0 43 0;
#X connect 43 0 41 0;
#X connect 43 1 44 0;
#X connect 44 0 45 0;
#X connect 45 0 40 1;
#X connect 47 0 48 0;
#X connect 47 1 48 1;
#X connect 48 0 50 0;
#X connect 49 0 47 1;
#X connect 50 0 22 0;
#X connect 50 1 51 0;
#X connect 51 0 22 0;
#X connect 52 0 47 0;
#X connect 53 0 54 0;
#X connect 54 0 56 0;
#X connect 55 0 53 0;
#X connect 55 1 29 0;
#X connect 55 2 28 0;
#X connect 56 0 58 0;
#X connect 56 1 57 0;
#X connect 57 0 27 0;
#X connect 58 0 27 0;
#X connect 59 0 60 0;
#X connect 60 0 61 0;
#X connect 61 0 62 0;
#X connect 61 0 65 0;
#X connect 62 0 32 0;
#X connect 64 0 59 0;
